<svg xmlns="http://www.w3.org/2000/svg" width="185" height="40" fill="none" viewBox="0 0 185 40"><path fill="#003A6D" d="M0 35.546h1.406c2.497 0 2.547-1.405 2.547-8.063V9.595c0-6.657-.053-8.063-2.6-8.063H0V.023h16.019v1.51h-1.352c-2.548 0-2.601 1.405-2.601 8.062v17.892c0 6.657.053 8.063 2.547 8.063h1.406v1.509H0v-1.513zM19.244 35.546h1.405c2.497 0 2.548-1.405 2.548-8.063V9.595c0-6.657-.054-8.063-2.601-8.063h-1.352V.023H37.76c5.408 0 12.326 1.77 12.326 8.79 0 5.099-4.784 8.064-9.415 8.635v.103c4.941.157 10.61 3.486 10.61 9.101 0 8.634-7.906 10.403-15.498 10.403h-16.54v-1.509zM31.309 16.72h3.643c4.888 0 7.021-3.068 7.021-7.646 0-3.485-1.299-7.228-6.968-7.228H31.31V16.72zm0 18.516h3.693c4.577 0 7.852-1.613 7.852-7.646 0-6.917-2.6-9.05-7.802-9.05h-3.743v16.696z"></path><path fill="#8B8D92" d="M114.701 9.094V.618h1.713V9.09h-1.713v.003zM123.619 9.094h-1.626V5.96c0-.664-.034-1.091-.104-1.285a.916.916 0 00-.337-.454.976.976 0 00-.564-.16 1.31 1.31 0 00-.758.23 1.162 1.162 0 00-.461.614c-.083.254-.123.725-.123 1.413v2.78h-1.626V2.956h1.509v.901c.534-.694 1.212-1.041 2.023-1.041.357 0 .685.063.982.193.297.13.521.294.674.494.154.2.257.428.317.681.06.254.09.618.09 1.092v3.82h.004zM128.079 2.955V4.25h-1.109v2.474c0 .5.01.794.034.875.02.083.07.15.143.203.077.054.167.08.274.08.15 0 .367-.053.655-.157l.14 1.26c-.377.16-.805.243-1.282.243-.294 0-.558-.05-.791-.147a1.171 1.171 0 01-.518-.38c-.11-.158-.187-.368-.227-.635-.033-.19-.053-.57-.053-1.145V4.243h-.745V2.955h.745V1.733l1.629-.949v2.167h1.105v.004zM132.763 7.141l1.619.27c-.207.595-.537 1.046-.985 1.356-.447.31-1.011.464-1.686.464-1.068 0-1.856-.347-2.37-1.045-.404-.557-.608-1.265-.608-2.116 0-1.019.267-1.813.798-2.39.531-.578 1.206-.865 2.017-.865.915 0 1.632.3 2.163.904.528.605.781 1.526.758 2.771h-4.07c.01.481.144.858.394 1.125.251.268.565.401.938.401.254 0 .468-.07.641-.207.171-.137.301-.36.391-.668zm.094-1.642c-.01-.471-.134-.828-.364-1.072a1.12 1.12 0 00-.845-.367c-.354 0-.648.13-.878.387-.23.257-.344.608-.341 1.052h2.428zM137.347 9.094h-1.626v-6.14h1.509v.872c.257-.41.491-.684.698-.815.207-.13.441-.196.701-.196.371 0 .728.103 1.069.307l-.505 1.415c-.273-.177-.527-.267-.764-.267a.91.91 0 00-.578.187c-.157.127-.284.35-.374.678-.09.327-.137 1.015-.137 2.056v1.903h.007zM145.984 9.094h-1.626V5.96c0-.664-.033-1.091-.103-1.285a.924.924 0 00-.338-.454.976.976 0 00-.564-.16c-.28 0-.534.077-.758.23a1.16 1.16 0 00-.46.614c-.084.258-.124.725-.124 1.413v2.78h-1.626V2.956h1.509v.901c.534-.694 1.212-1.041 2.023-1.041.358 0 .685.063.982.193.297.13.521.294.674.494.154.2.257.428.317.681.061.254.091.618.091 1.092v3.82h.003zM148.845 4.828l-1.476-.267c.167-.595.451-1.032.855-1.32.404-.283 1.005-.426 1.803-.426.724 0 1.265.086 1.619.257.354.17.604.39.748.654.144.264.217.748.217 1.452l-.017 1.897c0 .54.027.938.077 1.195.054.257.15.53.291.824h-1.606a5.505 5.505 0 01-.157-.48 4.271 4.271 0 00-.057-.19 2.94 2.94 0 01-.891.607 2.53 2.53 0 01-1.012.204c-.631 0-1.132-.17-1.496-.514-.364-.344-.547-.778-.547-1.303 0-.347.083-.657.247-.928.167-.27.397-.48.698-.624.297-.144.727-.27 1.292-.377.758-.144 1.285-.274 1.579-.398v-.16c0-.314-.077-.534-.231-.668-.153-.133-.444-.2-.871-.2-.29 0-.514.057-.678.17-.157.11-.287.308-.387.595zm2.174 1.318c-.207.07-.538.154-.989.248-.45.096-.744.19-.884.283-.211.15-.318.34-.318.571a.8.8 0 00.254.591.88.88 0 00.648.247c.294 0 .571-.097.838-.29.197-.147.327-.327.387-.538.043-.14.064-.404.064-.791v-.32zM157.031 2.955V4.25h-1.108v2.474c0 .5.01.794.033.875.02.083.07.15.144.203.077.054.167.08.274.08.15 0 .367-.053.654-.157l.14 1.26c-.377.16-.804.243-1.282.243a2.05 2.05 0 01-.791-.147 1.168 1.168 0 01-.517-.38c-.111-.158-.187-.368-.227-.635-.034-.19-.054-.57-.054-1.145V4.243h-.744V2.955h.744V1.733l1.629-.949v2.167h1.105v.004zM158.16 2.123V.621h1.626v1.502h-1.626zm0 6.971v-6.14h1.626v6.14h-1.626zM161.071 5.936c0-.54.134-1.061.397-1.566a2.718 2.718 0 011.132-1.155 3.342 3.342 0 011.633-.397c.928 0 1.689.3 2.283.905.595.604.892 1.365.892 2.287 0 .928-.301 1.699-.898 2.31-.598.611-1.352.915-2.264.915a3.565 3.565 0 01-1.609-.38 2.62 2.62 0 01-1.165-1.12c-.267-.493-.401-1.091-.401-1.799zm1.666.087c0 .608.144 1.075.434 1.399.291.324.644.484 1.068.484.424 0 .782-.16 1.065-.484.288-.324.431-.795.431-1.412 0-.601-.143-1.065-.431-1.39a1.364 1.364 0 00-1.065-.483c-.424 0-.781.16-1.068.484-.287.324-.434.794-.434 1.402zM174.266 9.094h-1.626V5.96c0-.664-.034-1.091-.104-1.285a.916.916 0 00-.337-.454.976.976 0 00-.564-.16 1.31 1.31 0 00-.758.23 1.162 1.162 0 00-.461.614c-.083.254-.123.725-.123 1.413v2.78h-1.626V2.956h1.509v.901c.534-.694 1.212-1.041 2.023-1.041.357 0 .684.063.981.193.298.13.521.294.675.494.153.2.257.428.317.681.06.254.09.618.09 1.092v3.82h.004zM177.127 4.828l-1.476-.267c.167-.595.451-1.032.855-1.32.404-.283 1.005-.426 1.803-.426.724 0 1.265.086 1.619.257.354.17.604.39.748.654.143.264.217.748.217 1.452l-.017 1.897c0 .54.027.938.077 1.195.053.257.15.53.29.824h-1.606a6.295 6.295 0 01-.157-.48 3.498 3.498 0 00-.056-.19c-.278.27-.575.47-.892.607a2.522 2.522 0 01-1.011.204c-.631 0-1.132-.17-1.496-.514-.364-.344-.548-.778-.548-1.303 0-.347.084-.657.247-.928.167-.27.398-.48.698-.624.297-.144.728-.27 1.292-.377.758-.144 1.286-.274 1.579-.398v-.16c0-.314-.076-.534-.23-.668-.154-.133-.444-.2-.871-.2-.291 0-.514.057-.678.17-.157.11-.287.308-.387.595zm2.173 1.318c-.207.07-.537.154-.988.248-.451.096-.745.19-.885.283-.21.15-.317.34-.317.571 0 .227.083.424.254.591a.88.88 0 00.647.247c.294 0 .571-.097.838-.29.197-.147.328-.327.388-.538.043-.14.063-.404.063-.791v-.32zM182.498 9.094V.618h1.626V9.09h-1.626v.003zM114.761 14.827h3.389c.671 0 1.172.027 1.499.083.33.057.624.174.885.35.26.178.477.415.651.709.173.293.26.624.26.991 0 .398-.107.761-.32 1.092-.214.33-.505.58-.872.744.518.15.915.408 1.192.768.277.364.417.788.417 1.279 0 .384-.09.761-.27 1.125-.18.364-.424.654-.734.872-.311.216-.695.35-1.149.4-.284.03-.975.05-2.063.057h-2.885v-8.47zm1.71 1.409v1.96h1.121c.668 0 1.082-.01 1.242-.03.294-.034.525-.137.691-.304.167-.167.251-.388.251-.661 0-.26-.074-.474-.217-.638-.144-.164-.361-.264-.645-.297-.17-.02-.657-.03-1.462-.03h-.981zm0 3.372v2.267h1.582c.618 0 1.008-.017 1.175-.054.254-.047.461-.16.621-.337.161-.18.241-.42.241-.721 0-.254-.06-.47-.184-.648a1.04 1.04 0 00-.534-.387c-.234-.08-.738-.12-1.519-.12h-1.382zM127.335 23.3v-.918a2.36 2.36 0 01-.882.774 2.49 2.49 0 01-1.152.284 2.25 2.25 0 01-1.108-.27 1.596 1.596 0 01-.711-.765c-.147-.327-.22-.78-.22-1.358V17.16h1.625v2.822c0 .864.031 1.392.091 1.585.06.194.167.35.327.464.157.114.357.17.601.17.277 0 .527-.076.744-.226a1.15 1.15 0 00.451-.568c.08-.227.12-.778.12-1.656v-2.59h1.626v6.14h-1.512zM132.082 23.3h-1.626v-6.14h1.509v.872c.257-.41.491-.685.698-.815.207-.13.441-.197.701-.197.371 0 .728.104 1.068.307l-.504 1.416c-.273-.177-.527-.267-.764-.267a.91.91 0 00-.578.187c-.157.127-.284.35-.374.677-.09.328-.137 1.015-.137 2.057V23.3h.007zM140.485 18.977l-1.602.29c-.054-.32-.177-.56-.367-.721-.191-.16-.438-.244-.745-.244-.404 0-.728.14-.968.42-.241.281-.361.749-.361 1.403 0 .728.124 1.242.368 1.543.243.3.574.45.984.45.308 0 .561-.086.758-.263.197-.177.334-.478.418-.905l1.595.27c-.166.731-.484 1.286-.954 1.66-.471.373-1.102.56-1.89.56-.898 0-1.613-.283-2.147-.851-.534-.568-.801-1.352-.801-2.354 0-1.015.267-1.803.805-2.367.534-.564 1.258-.848 2.173-.848.748 0 1.342.16 1.783.484.444.324.758.815.951 1.473zM143.337 14.827v3.115c.524-.615 1.151-.918 1.879-.918.374 0 .711.07 1.012.207.3.14.527.317.677.53.154.218.258.454.314.718.057.264.084.668.084 1.219V23.3h-1.626v-3.242c0-.644-.03-1.051-.094-1.225a.798.798 0 00-.327-.414 1.039 1.039 0 00-.587-.153c-.271 0-.511.066-.722.197a1.13 1.13 0 00-.464.59c-.096.264-.146.655-.146 1.172V23.3h-1.626v-8.473h1.626zM114.745 29.032h1.712v4.591c0 .728.02 1.202.064 1.416.073.347.247.624.524.834.274.21.651.314 1.132.314.484 0 .851-.1 1.098-.297.247-.197.394-.44.444-.731.05-.29.077-.768.077-1.44v-4.687h1.713v4.45c0 1.02-.047 1.737-.14 2.158-.094.42-.264.774-.511 1.065-.247.29-.581.52-.998.69-.418.171-.959.258-1.63.258-.808 0-1.422-.094-1.843-.28a2.666 2.666 0 01-.991-.728 2.31 2.31 0 01-.481-.939c-.113-.484-.167-1.202-.167-2.15v-4.523h-.003zM128.877 37.51h-1.626v-3.136c0-.664-.033-1.091-.104-1.285a.916.916 0 00-.337-.454.976.976 0 00-.564-.16c-.28 0-.534.076-.758.23a1.167 1.167 0 00-.461.614c-.083.257-.123.725-.123 1.412v2.782h-1.626V31.37h1.509v.901c.534-.695 1.212-1.042 2.023-1.042.358 0 .685.064.982.194.297.13.521.294.674.494.154.2.257.427.317.681.061.254.091.618.091 1.092v3.82h.003zM130.526 30.535v-1.503h1.626v1.503h-1.626zm0 6.974v-6.14h1.626v6.14h-1.626zM135.504 37.51l-2.474-6.14h1.706l1.155 3.135.334 1.045c.09-.267.144-.441.167-.528.054-.173.114-.347.174-.52l1.168-3.136h1.67l-2.441 6.14h-1.459v.004zM143.954 35.553l1.619.27c-.207.595-.537 1.045-.984 1.356-.448.31-1.012.464-1.686.464-1.069 0-1.857-.347-2.371-1.045-.404-.558-.607-1.265-.607-2.117 0-1.018.267-1.813.797-2.39.531-.578 1.206-.865 2.017-.865.915 0 1.633.3 2.163.905.528.604.782 1.526.758 2.77h-4.07c.011.482.144.859.394 1.126.251.267.565.4.939.4.253 0 .467-.07.641-.206.173-.137.303-.358.39-.668zm.094-1.64c-.01-.47-.134-.827-.364-1.071a1.119 1.119 0 00-.845-.367c-.354 0-.648.13-.878.387-.23.257-.344.608-.34 1.052h2.427zM148.538 37.51h-1.626v-6.14h1.509v.87c.257-.41.491-.684.698-.814.207-.13.441-.197.701-.197.37 0 .728.104 1.068.308l-.504 1.415c-.274-.177-.527-.267-.764-.267a.91.91 0 00-.578.187c-.157.127-.284.35-.374.678-.09.327-.137 1.015-.137 2.056v1.903h.007zM151.018 35.756l1.63-.247c.07.318.21.558.42.721.211.164.508.248.892.248.42 0 .738-.077.948-.23a.516.516 0 00.214-.435.428.428 0 00-.117-.307c-.08-.077-.264-.147-.544-.214-1.309-.29-2.141-.554-2.491-.79-.484-.331-.728-.792-.728-1.383 0-.53.21-.978.631-1.342.421-.36 1.072-.544 1.953-.544.842 0 1.466.136 1.873.41.407.274.691.678.845 1.215l-1.533.284a.937.937 0 00-.374-.547c-.183-.127-.444-.19-.784-.19-.427 0-.735.06-.918.18a.38.38 0 00-.184.33c0 .117.054.214.16.294.147.107.651.26 1.519.457.865.197 1.469.438 1.813.722.341.29.508.69.508 1.208 0 .564-.234 1.045-.705 1.452-.47.408-1.165.608-2.086.608-.835 0-1.499-.17-1.987-.507a2.423 2.423 0 01-.955-1.393zM158.177 30.535v-1.503h1.626v1.503h-1.626zm0 6.974v-6.14h1.626v6.14h-1.626zM164.28 31.37v1.295h-1.109v2.474c0 .5.01.794.033.875.021.083.071.15.144.203.077.054.167.08.274.08.15 0 .367-.053.654-.156l.14 1.258c-.377.16-.804.244-1.282.244-.293 0-.557-.05-.791-.147a1.17 1.17 0 01-.517-.38c-.111-.158-.187-.368-.227-.635-.034-.19-.054-.57-.054-1.145v-2.678h-.744v-1.295h.744v-1.215l1.629-.948v2.166h1.106v.004zM164.64 31.37h1.73l1.469 4.36 1.432-4.36h1.682l-2.166 5.91-.388 1.067c-.143.358-.277.631-.407.822-.13.19-.277.34-.444.46a1.91 1.91 0 01-.618.274 3.14 3.14 0 01-.828.097c-.313 0-.617-.033-.918-.097l-.143-1.272c.254.05.484.077.688.077.377 0 .657-.11.838-.334.18-.22.32-.504.417-.848l-2.344-6.156z"></path><path fill="#937947" d="M101.136 0h-2.02v38.16h2.02V0z"></path><path fill="#003A6D" d="M87.264 1.532h-1.352c-2.547 0-2.6 1.406-2.6 8.063v15.601c0 7.646-4.888 12.69-13.211 12.69-9.622 0-14.667-5.201-14.667-12.897V9.595c0-6.657-.053-8.063-2.6-8.063H51.48V.023H67.5v1.51h-1.352c-2.547 0-2.6 1.405-2.6 8.062v16.486c0 7.021 3.849 9.519 8.165 9.519 4.941 0 9.308-3.59 9.308-11.181V9.595c0-6.657-.053-8.063-2.6-8.063h-1.353V.023h10.193v1.51h.004z"></path></svg>